<svg width="400" height="315" viewBox="0 0 400 315" fill="none" xmlns="http://www.w3.org/2000/svg">
<g opacity="0.8">
<line x1="3.27918e-08" y1="314.348" x2="400" y2="314.348" stroke="white" stroke-opacity="0.3" stroke-width="1.3046"/>
<line x1="3.0608e-08" y1="284.348" x2="400" y2="284.348" stroke="white" stroke-opacity="0.3" stroke-width="1.3046"/>
<line x1="3.05993e-08" y1="254.348" x2="400" y2="254.348" stroke="white" stroke-opacity="0.3" stroke-width="1.3046"/>
<line x1="3.05993e-08" y1="224.348" x2="400" y2="224.348" stroke="white" stroke-opacity="0.3" stroke-width="1.3046"/>
<line x1="2.85688e-08" y1="194.348" x2="400" y2="194.348" stroke="white" stroke-opacity="0.3" stroke-width="1.3046"/>
<line x1="3.05993e-08" y1="164.348" x2="400" y2="164.348" stroke="white" stroke-opacity="0.3" stroke-width="1.3046"/>
<line x1="3.0608e-08" y1="134.348" x2="400" y2="134.348" stroke="white" stroke-opacity="0.3" stroke-width="1.3046"/>
<line x1="3.0608e-08" y1="104.348" x2="400" y2="104.348" stroke="white" stroke-opacity="0.3" stroke-width="1.3046"/>
<line x1="2.87671e-08" y1="74.3477" x2="400" y2="74.3477" stroke="white" stroke-opacity="0.3" stroke-width="1.3046"/>
<line x1="3.0608e-08" y1="44.3477" x2="400" y2="44.3477" stroke="white" stroke-opacity="0.3" stroke-width="1.3046"/>
<line x1="3.0608e-08" y1="14.3477" x2="400" y2="14.3477" stroke="white" stroke-opacity="0.3" stroke-width="1.3046"/>
<line x1="155.652" y1="-40" x2="155.652" y2="342" stroke="white" stroke-opacity="0.3" stroke-width="1.3046"/>
<line x1="186.652" y1="-40" x2="186.652" y2="342" stroke="white" stroke-opacity="0.3" stroke-width="1.3046"/>
<line x1="217.652" y1="-40" x2="217.652" y2="342" stroke="white" stroke-opacity="0.3" stroke-width="1.3046"/>
<line x1="248.652" y1="-40" x2="248.652" y2="342" stroke="white" stroke-opacity="0.3" stroke-width="1.3046"/>
<line x1="279.652" y1="-40" x2="279.652" y2="342" stroke="white" stroke-opacity="0.3" stroke-width="1.3046"/>
<line x1="310.652" y1="-40" x2="310.652" y2="342" stroke="white" stroke-opacity="0.3" stroke-width="1.3046"/>
<line x1="341.652" y1="-40" x2="341.652" y2="342" stroke="white" stroke-opacity="0.3" stroke-width="1.3046"/>
<line x1="372.652" y1="-40" x2="372.652" y2="342" stroke="white" stroke-opacity="0.3" stroke-width="1.3046"/>
<line x1="31.6523" y1="-40" x2="31.6523" y2="342" stroke="white" stroke-opacity="0.3" stroke-width="1.3046"/>
<line x1="0.652299" y1="-40" x2="0.652282" y2="342" stroke="white" stroke-opacity="0.3" stroke-width="1.3046"/>
<line x1="62.6523" y1="-40" x2="62.6523" y2="342" stroke="white" stroke-opacity="0.3" stroke-width="1.3046"/>
<line x1="93.6523" y1="-40" x2="93.6523" y2="342" stroke="white" stroke-opacity="0.3" stroke-width="1.3046"/>
<line x1="124.652" y1="-40" x2="124.652" y2="342" stroke="white" stroke-opacity="0.3" stroke-width="1.3046"/>
<line x1="399.652" y1="-12.9371" x2="399.652" y2="314.938" stroke="white" stroke-opacity="0.3" stroke-width="1.3046"/>
</g>
</svg>
